<mxfile host="app.diagrams.net" modified="2021-07-20T02:38:36.161Z" agent="5.0 (Windows NT 10.0; Win64; x64) AppleWebKit/537.36 (KHTML, like Gecko) Chrome/91.0.4472.124 Safari/537.36 Edg/91.0.864.70" etag="Shq57x4er-E_yLsOEmyX" version="14.9.0" type="github" pages="2">
  <diagram id="xa9PgJeoE1B6supJUBc8" name="指标分类关系图">
    <mxGraphModel dx="880" dy="520" grid="1" gridSize="10" guides="1" tooltips="1" connect="1" arrows="1" fold="1" page="1" pageScale="1" pageWidth="827" pageHeight="1169" math="0" shadow="0">
      <root>
        <mxCell id="0" />
        <mxCell id="1" parent="0" />
        <mxCell id="kIcMfMsLMuEFGk4rLsd1-2" value="" style="rounded=1;whiteSpace=wrap;html=1;" parent="1" vertex="1">
          <mxGeometry x="200" y="240" width="390" height="160" as="geometry" />
        </mxCell>
        <mxCell id="kIcMfMsLMuEFGk4rLsd1-3" value="指标分类1" style="text;html=1;strokeColor=none;fillColor=none;align=center;verticalAlign=middle;whiteSpace=wrap;rounded=0;" parent="1" vertex="1">
          <mxGeometry x="340" y="250" width="110" height="20" as="geometry" />
        </mxCell>
        <mxCell id="kIcMfMsLMuEFGk4rLsd1-4" value="指标1" style="ellipse;whiteSpace=wrap;html=1;" parent="1" vertex="1">
          <mxGeometry x="310" y="285" width="70" height="45" as="geometry" />
        </mxCell>
        <mxCell id="kIcMfMsLMuEFGk4rLsd1-5" value="指标2" style="ellipse;whiteSpace=wrap;html=1;" parent="1" vertex="1">
          <mxGeometry x="390" y="285" width="70" height="45" as="geometry" />
        </mxCell>
        <mxCell id="kIcMfMsLMuEFGk4rLsd1-6" value="指标n" style="ellipse;whiteSpace=wrap;html=1;" parent="1" vertex="1">
          <mxGeometry x="510" y="285" width="70" height="45" as="geometry" />
        </mxCell>
        <mxCell id="kIcMfMsLMuEFGk4rLsd1-7" value="..." style="text;html=1;strokeColor=none;fillColor=none;align=center;verticalAlign=middle;whiteSpace=wrap;rounded=0;" parent="1" vertex="1">
          <mxGeometry x="470" y="297.5" width="40" height="20" as="geometry" />
        </mxCell>
        <mxCell id="kIcMfMsLMuEFGk4rLsd1-8" value="基本信息" style="ellipse;whiteSpace=wrap;html=1;" parent="1" vertex="1">
          <mxGeometry x="220" y="285" width="70" height="45" as="geometry" />
        </mxCell>
        <mxCell id="kIcMfMsLMuEFGk4rLsd1-9" value="评分组" style="ellipse;whiteSpace=wrap;html=1;" parent="1" vertex="1">
          <mxGeometry x="220" y="340" width="70" height="45" as="geometry" />
        </mxCell>
        <mxCell id="kIcMfMsLMuEFGk4rLsd1-10" value="评分教师" style="shape=umlActor;verticalLabelPosition=bottom;verticalAlign=top;html=1;outlineConnect=0;" parent="1" vertex="1">
          <mxGeometry x="240" y="460" width="30" height="60" as="geometry" />
        </mxCell>
        <mxCell id="kIcMfMsLMuEFGk4rLsd1-13" value="" style="endArrow=classic;html=1;" parent="1" source="kIcMfMsLMuEFGk4rLsd1-9" edge="1">
          <mxGeometry width="50" height="50" relative="1" as="geometry">
            <mxPoint x="90" y="420" as="sourcePoint" />
            <mxPoint x="255" y="460" as="targetPoint" />
          </mxGeometry>
        </mxCell>
        <mxCell id="kIcMfMsLMuEFGk4rLsd1-14" value="授权" style="edgeLabel;html=1;align=center;verticalAlign=middle;resizable=0;points=[];" parent="kIcMfMsLMuEFGk4rLsd1-13" vertex="1" connectable="0">
          <mxGeometry x="-0.1793" y="-1" relative="1" as="geometry">
            <mxPoint as="offset" />
          </mxGeometry>
        </mxCell>
        <mxCell id="kIcMfMsLMuEFGk4rLsd1-15" value="配置应用" style="rounded=1;whiteSpace=wrap;html=1;" parent="1" vertex="1">
          <mxGeometry x="335" y="470" width="120" height="60" as="geometry" />
        </mxCell>
        <mxCell id="kIcMfMsLMuEFGk4rLsd1-16" value="" style="endArrow=classic;html=1;exitX=0.5;exitY=1;exitDx=0;exitDy=0;entryX=0.5;entryY=0;entryDx=0;entryDy=0;" parent="1" source="kIcMfMsLMuEFGk4rLsd1-2" target="kIcMfMsLMuEFGk4rLsd1-15" edge="1">
          <mxGeometry width="50" height="50" relative="1" as="geometry">
            <mxPoint x="380" y="500" as="sourcePoint" />
            <mxPoint x="430" y="450" as="targetPoint" />
          </mxGeometry>
        </mxCell>
        <mxCell id="kIcMfMsLMuEFGk4rLsd1-21" value="提供指标和权限" style="edgeLabel;html=1;align=center;verticalAlign=middle;resizable=0;points=[];" parent="kIcMfMsLMuEFGk4rLsd1-16" vertex="1" connectable="0">
          <mxGeometry x="-0.3714" y="1" relative="1" as="geometry">
            <mxPoint as="offset" />
          </mxGeometry>
        </mxCell>
        <mxCell id="kIcMfMsLMuEFGk4rLsd1-17" value="&lt;span style=&quot;color: rgb(0 , 0 , 0) ; font-family: &amp;#34;helvetica&amp;#34; ; font-size: 11px ; font-style: normal ; font-weight: 400 ; letter-spacing: normal ; text-align: center ; text-indent: 0px ; text-transform: none ; word-spacing: 0px ; background-color: rgb(255 , 255 , 255) ; display: inline ; float: none&quot;&gt;提供指标和权限&lt;/span&gt;" style="endArrow=classic;html=1;exitX=0.5;exitY=1;exitDx=0;exitDy=0;entryX=0.5;entryY=0;entryDx=0;entryDy=0;" parent="1" target="kIcMfMsLMuEFGk4rLsd1-18" edge="1">
          <mxGeometry width="50" height="50" relative="1" as="geometry">
            <mxPoint x="529.9999999999998" y="400" as="sourcePoint" />
            <mxPoint x="565" y="450" as="targetPoint" />
          </mxGeometry>
        </mxCell>
        <mxCell id="kIcMfMsLMuEFGk4rLsd1-18" value="发起巡查" style="rounded=1;whiteSpace=wrap;html=1;" parent="1" vertex="1">
          <mxGeometry x="470" y="470" width="120" height="60" as="geometry" />
        </mxCell>
        <mxCell id="kIcMfMsLMuEFGk4rLsd1-19" value="提供维度" style="endArrow=classic;html=1;exitX=1;exitY=0.881;exitDx=0;exitDy=0;entryX=0.5;entryY=0;entryDx=0;entryDy=0;exitPerimeter=0;" parent="1" source="kIcMfMsLMuEFGk4rLsd1-2" target="kIcMfMsLMuEFGk4rLsd1-20" edge="1">
          <mxGeometry width="50" height="50" relative="1" as="geometry">
            <mxPoint x="659.9999999999998" y="400" as="sourcePoint" />
            <mxPoint x="695" y="450" as="targetPoint" />
          </mxGeometry>
        </mxCell>
        <mxCell id="kIcMfMsLMuEFGk4rLsd1-20" value="德育评比" style="rounded=1;whiteSpace=wrap;html=1;" parent="1" vertex="1">
          <mxGeometry x="620" y="470" width="120" height="60" as="geometry" />
        </mxCell>
        <mxCell id="kIcMfMsLMuEFGk4rLsd1-22" value="指标分类2" style="rounded=1;whiteSpace=wrap;html=1;" parent="1" vertex="1">
          <mxGeometry x="335" y="610" width="120" height="60" as="geometry" />
        </mxCell>
        <mxCell id="kIcMfMsLMuEFGk4rLsd1-23" value="指标分类n" style="rounded=1;whiteSpace=wrap;html=1;" parent="1" vertex="1">
          <mxGeometry x="620" y="610" width="120" height="60" as="geometry" />
        </mxCell>
        <mxCell id="kIcMfMsLMuEFGk4rLsd1-24" value="..." style="rounded=1;whiteSpace=wrap;html=1;" parent="1" vertex="1">
          <mxGeometry x="470" y="610" width="120" height="60" as="geometry" />
        </mxCell>
        <mxCell id="kIcMfMsLMuEFGk4rLsd1-25" value="" style="endArrow=classic;html=1;entryX=0.5;entryY=1;entryDx=0;entryDy=0;exitX=0.5;exitY=0;exitDx=0;exitDy=0;" parent="1" source="kIcMfMsLMuEFGk4rLsd1-22" target="kIcMfMsLMuEFGk4rLsd1-15" edge="1">
          <mxGeometry width="50" height="50" relative="1" as="geometry">
            <mxPoint x="400" y="610" as="sourcePoint" />
            <mxPoint x="450" y="560" as="targetPoint" />
          </mxGeometry>
        </mxCell>
        <mxCell id="kIcMfMsLMuEFGk4rLsd1-27" value="" style="endArrow=classic;html=1;entryX=0.5;entryY=1;entryDx=0;entryDy=0;exitX=0.5;exitY=0;exitDx=0;exitDy=0;" parent="1" edge="1">
          <mxGeometry width="50" height="50" relative="1" as="geometry">
            <mxPoint x="530.0000000000001" y="610" as="sourcePoint" />
            <mxPoint x="530.0000000000001" y="530" as="targetPoint" />
          </mxGeometry>
        </mxCell>
        <mxCell id="kIcMfMsLMuEFGk4rLsd1-28" value="" style="endArrow=classic;html=1;entryX=0.5;entryY=1;entryDx=0;entryDy=0;exitX=0.5;exitY=0;exitDx=0;exitDy=0;" parent="1" edge="1">
          <mxGeometry width="50" height="50" relative="1" as="geometry">
            <mxPoint x="679.5800000000002" y="610" as="sourcePoint" />
            <mxPoint x="679.5800000000002" y="530" as="targetPoint" />
          </mxGeometry>
        </mxCell>
        <mxCell id="kIcMfMsLMuEFGk4rLsd1-29" value="" style="endArrow=classic;html=1;entryX=0.5;entryY=1;entryDx=0;entryDy=0;exitX=0.5;exitY=0;exitDx=0;exitDy=0;" parent="1" source="kIcMfMsLMuEFGk4rLsd1-22" target="kIcMfMsLMuEFGk4rLsd1-18" edge="1">
          <mxGeometry width="50" height="50" relative="1" as="geometry">
            <mxPoint x="454.0000000000001" y="630" as="sourcePoint" />
            <mxPoint x="454.0000000000001" y="550" as="targetPoint" />
          </mxGeometry>
        </mxCell>
        <mxCell id="kIcMfMsLMuEFGk4rLsd1-30" value="" style="endArrow=classic;html=1;entryX=0.5;entryY=1;entryDx=0;entryDy=0;exitX=0.5;exitY=0;exitDx=0;exitDy=0;" parent="1" source="kIcMfMsLMuEFGk4rLsd1-22" target="kIcMfMsLMuEFGk4rLsd1-20" edge="1">
          <mxGeometry width="50" height="50" relative="1" as="geometry">
            <mxPoint x="435.0000000000001" y="650" as="sourcePoint" />
            <mxPoint x="435.0000000000001" y="570" as="targetPoint" />
          </mxGeometry>
        </mxCell>
        <mxCell id="kIcMfMsLMuEFGk4rLsd1-31" value="" style="endArrow=classic;html=1;entryX=0.5;entryY=1;entryDx=0;entryDy=0;exitX=0.5;exitY=0;exitDx=0;exitDy=0;" parent="1" source="kIcMfMsLMuEFGk4rLsd1-24" target="kIcMfMsLMuEFGk4rLsd1-15" edge="1">
          <mxGeometry width="50" height="50" relative="1" as="geometry">
            <mxPoint x="445.0000000000001" y="660" as="sourcePoint" />
            <mxPoint x="445.0000000000001" y="580" as="targetPoint" />
          </mxGeometry>
        </mxCell>
        <mxCell id="kIcMfMsLMuEFGk4rLsd1-32" value="" style="endArrow=classic;html=1;entryX=0.5;entryY=1;entryDx=0;entryDy=0;exitX=0.5;exitY=0;exitDx=0;exitDy=0;" parent="1" source="kIcMfMsLMuEFGk4rLsd1-24" target="kIcMfMsLMuEFGk4rLsd1-15" edge="1">
          <mxGeometry width="50" height="50" relative="1" as="geometry">
            <mxPoint x="455.0000000000001" y="670" as="sourcePoint" />
            <mxPoint x="455.0000000000001" y="590" as="targetPoint" />
          </mxGeometry>
        </mxCell>
        <mxCell id="kIcMfMsLMuEFGk4rLsd1-33" value="" style="endArrow=classic;html=1;entryX=0.5;entryY=1;entryDx=0;entryDy=0;exitX=0.5;exitY=0;exitDx=0;exitDy=0;" parent="1" source="kIcMfMsLMuEFGk4rLsd1-24" target="kIcMfMsLMuEFGk4rLsd1-20" edge="1">
          <mxGeometry width="50" height="50" relative="1" as="geometry">
            <mxPoint x="465.0000000000001" y="680" as="sourcePoint" />
            <mxPoint x="465.0000000000001" y="600" as="targetPoint" />
          </mxGeometry>
        </mxCell>
        <mxCell id="kIcMfMsLMuEFGk4rLsd1-34" value="" style="endArrow=classic;html=1;exitX=0.5;exitY=0;exitDx=0;exitDy=0;entryX=0.5;entryY=1;entryDx=0;entryDy=0;" parent="1" source="kIcMfMsLMuEFGk4rLsd1-23" target="kIcMfMsLMuEFGk4rLsd1-18" edge="1">
          <mxGeometry width="50" height="50" relative="1" as="geometry">
            <mxPoint x="475.0000000000001" y="690" as="sourcePoint" />
            <mxPoint x="475.0000000000001" y="610" as="targetPoint" />
          </mxGeometry>
        </mxCell>
        <mxCell id="kIcMfMsLMuEFGk4rLsd1-35" value="" style="endArrow=classic;html=1;entryX=0.5;entryY=1;entryDx=0;entryDy=0;exitX=0.5;exitY=0;exitDx=0;exitDy=0;" parent="1" source="kIcMfMsLMuEFGk4rLsd1-23" target="kIcMfMsLMuEFGk4rLsd1-15" edge="1">
          <mxGeometry width="50" height="50" relative="1" as="geometry">
            <mxPoint x="485.0000000000001" y="700" as="sourcePoint" />
            <mxPoint x="485.0000000000001" y="620" as="targetPoint" />
          </mxGeometry>
        </mxCell>
      </root>
    </mxGraphModel>
  </diagram>
  <diagram id="F-vZy38K2OThLhAN2Yfx" name="资产管理子系统">
    <mxGraphModel dx="2500" dy="896" grid="1" gridSize="10" guides="1" tooltips="1" connect="1" arrows="1" fold="1" page="1" pageScale="1" pageWidth="827" pageHeight="1169" math="0" shadow="0">
      <root>
        <mxCell id="oDbv9hanwlCo9opKcelk-0" />
        <mxCell id="oDbv9hanwlCo9opKcelk-1" parent="oDbv9hanwlCo9opKcelk-0" />
        <mxCell id="oDbv9hanwlCo9opKcelk-2" value="资产库" style="shape=cylinder3;whiteSpace=wrap;html=1;boundedLbl=1;backgroundOutline=1;size=15;" parent="oDbv9hanwlCo9opKcelk-1" vertex="1">
          <mxGeometry x="950" y="310" width="60" height="80" as="geometry" />
        </mxCell>
        <mxCell id="oDbv9hanwlCo9opKcelk-3" value="仓管" style="shape=umlActor;verticalLabelPosition=bottom;verticalAlign=top;html=1;outlineConnect=0;" parent="oDbv9hanwlCo9opKcelk-1" vertex="1">
          <mxGeometry x="90" y="330" width="30" height="60" as="geometry" />
        </mxCell>
        <mxCell id="oDbv9hanwlCo9opKcelk-5" value="" style="endArrow=none;html=1;exitX=0.5;exitY=0.5;exitDx=0;exitDy=0;exitPerimeter=0;entryX=0;entryY=0.5;entryDx=0;entryDy=0;" parent="oDbv9hanwlCo9opKcelk-1" source="oDbv9hanwlCo9opKcelk-3" target="oDbv9hanwlCo9opKcelk-18" edge="1">
          <mxGeometry width="50" height="50" relative="1" as="geometry">
            <mxPoint x="300" y="480" as="sourcePoint" />
            <mxPoint x="350" y="430" as="targetPoint" />
          </mxGeometry>
        </mxCell>
        <mxCell id="oDbv9hanwlCo9opKcelk-6" value="" style="endArrow=classic;html=1;exitX=1;exitY=0.5;exitDx=0;exitDy=0;" parent="oDbv9hanwlCo9opKcelk-1" source="oDbv9hanwlCo9opKcelk-18" target="oDbv9hanwlCo9opKcelk-2" edge="1">
          <mxGeometry width="50" height="50" relative="1" as="geometry">
            <mxPoint x="470" y="350" as="sourcePoint" />
            <mxPoint x="480" y="420" as="targetPoint" />
          </mxGeometry>
        </mxCell>
        <mxCell id="oDbv9hanwlCo9opKcelk-7" value="库存汇总" style="ellipse;whiteSpace=wrap;html=1;" parent="oDbv9hanwlCo9opKcelk-1" vertex="1">
          <mxGeometry x="454" y="360" width="120" height="80" as="geometry" />
        </mxCell>
        <mxCell id="oDbv9hanwlCo9opKcelk-8" value="" style="endArrow=classic;html=1;exitX=0;exitY=0.5;exitDx=0;exitDy=0;exitPerimeter=0;" parent="oDbv9hanwlCo9opKcelk-1" source="oDbv9hanwlCo9opKcelk-2" target="oDbv9hanwlCo9opKcelk-7" edge="1">
          <mxGeometry width="50" height="50" relative="1" as="geometry">
            <mxPoint x="670" y="490" as="sourcePoint" />
            <mxPoint x="720" y="440" as="targetPoint" />
          </mxGeometry>
        </mxCell>
        <mxCell id="oDbv9hanwlCo9opKcelk-18" value="入库" style="swimlane;startSize=23;" parent="oDbv9hanwlCo9opKcelk-1" vertex="1">
          <mxGeometry x="414" y="210" width="296" height="120" as="geometry">
            <mxRectangle x="440" y="210" width="60" height="23" as="alternateBounds" />
          </mxGeometry>
        </mxCell>
        <mxCell id="oDbv9hanwlCo9opKcelk-4" value="直接入库" style="ellipse;whiteSpace=wrap;html=1;" parent="oDbv9hanwlCo9opKcelk-18" vertex="1">
          <mxGeometry x="26" y="30" width="120" height="80" as="geometry" />
        </mxCell>
        <mxCell id="oDbv9hanwlCo9opKcelk-19" value="采购入库" style="ellipse;whiteSpace=wrap;html=1;" parent="oDbv9hanwlCo9opKcelk-18" vertex="1">
          <mxGeometry x="166" y="30" width="120" height="80" as="geometry" />
        </mxCell>
        <mxCell id="oDbv9hanwlCo9opKcelk-25" value="资产管理" style="swimlane;startSize=23;" parent="oDbv9hanwlCo9opKcelk-1" vertex="1">
          <mxGeometry x="341" y="600" width="346" height="240" as="geometry">
            <mxRectangle x="440" y="520" width="60" height="23" as="alternateBounds" />
          </mxGeometry>
        </mxCell>
        <mxCell id="oDbv9hanwlCo9opKcelk-32" value="领用" style="ellipse;whiteSpace=wrap;html=1;" parent="oDbv9hanwlCo9opKcelk-25" vertex="1">
          <mxGeometry x="36" y="40" width="120" height="80" as="geometry" />
        </mxCell>
        <mxCell id="oDbv9hanwlCo9opKcelk-31" value="报废" style="ellipse;whiteSpace=wrap;html=1;" parent="oDbv9hanwlCo9opKcelk-25" vertex="1">
          <mxGeometry x="193" y="140" width="120" height="80" as="geometry" />
        </mxCell>
        <mxCell id="D95FVgxs19TmoeW3dnm6-0" value="分配" style="ellipse;whiteSpace=wrap;html=1;" vertex="1" parent="oDbv9hanwlCo9opKcelk-25">
          <mxGeometry x="193" y="40" width="120" height="80" as="geometry" />
        </mxCell>
        <mxCell id="D95FVgxs19TmoeW3dnm6-1" value="借还" style="ellipse;whiteSpace=wrap;html=1;" vertex="1" parent="oDbv9hanwlCo9opKcelk-25">
          <mxGeometry x="36" y="140" width="120" height="80" as="geometry" />
        </mxCell>
        <mxCell id="oDbv9hanwlCo9opKcelk-41" value="入库记录" style="shape=document;whiteSpace=wrap;html=1;boundedLbl=1;rotation=0;" parent="oDbv9hanwlCo9opKcelk-1" vertex="1">
          <mxGeometry x="240" y="170" width="120" height="80" as="geometry" />
        </mxCell>
        <mxCell id="oDbv9hanwlCo9opKcelk-42" value="" style="endArrow=classic;html=1;exitX=0;exitY=0;exitDx=0;exitDy=0;" parent="oDbv9hanwlCo9opKcelk-1" source="oDbv9hanwlCo9opKcelk-18" target="oDbv9hanwlCo9opKcelk-41" edge="1">
          <mxGeometry width="50" height="50" relative="1" as="geometry">
            <mxPoint x="374" y="220" as="sourcePoint" />
            <mxPoint x="514" y="10" as="targetPoint" />
          </mxGeometry>
        </mxCell>
        <mxCell id="oDbv9hanwlCo9opKcelk-43" value="资产管理记录" style="shape=document;whiteSpace=wrap;html=1;boundedLbl=1;" parent="oDbv9hanwlCo9opKcelk-1" vertex="1">
          <mxGeometry x="160" y="560" width="120" height="80" as="geometry" />
        </mxCell>
        <mxCell id="oDbv9hanwlCo9opKcelk-45" value="" style="endArrow=classic;html=1;exitX=0;exitY=0;exitDx=0;exitDy=0;" parent="oDbv9hanwlCo9opKcelk-1" source="oDbv9hanwlCo9opKcelk-25" target="oDbv9hanwlCo9opKcelk-43" edge="1">
          <mxGeometry width="50" height="50" relative="1" as="geometry">
            <mxPoint x="430" y="560" as="sourcePoint" />
            <mxPoint x="380" y="320" as="targetPoint" />
          </mxGeometry>
        </mxCell>
        <mxCell id="oDbv9hanwlCo9opKcelk-53" value="领用" style="swimlane;" parent="oDbv9hanwlCo9opKcelk-1" vertex="1">
          <mxGeometry x="-70" y="1150" width="450" height="470" as="geometry">
            <mxRectangle x="110" y="650" width="60" height="23" as="alternateBounds" />
          </mxGeometry>
        </mxCell>
        <mxCell id="oDbv9hanwlCo9opKcelk-52" value="申请领用" style="rounded=0;whiteSpace=wrap;html=1;" parent="oDbv9hanwlCo9opKcelk-53" vertex="1">
          <mxGeometry x="120" y="70" width="120" height="60" as="geometry" />
        </mxCell>
        <mxCell id="oDbv9hanwlCo9opKcelk-55" value="审核" style="rhombus;whiteSpace=wrap;html=1;" parent="oDbv9hanwlCo9opKcelk-53" vertex="1">
          <mxGeometry x="140" y="200" width="80" height="80" as="geometry" />
        </mxCell>
        <mxCell id="oDbv9hanwlCo9opKcelk-56" value="领用成功" style="rounded=0;whiteSpace=wrap;html=1;" parent="oDbv9hanwlCo9opKcelk-53" vertex="1">
          <mxGeometry x="120" y="340" width="120" height="60" as="geometry" />
        </mxCell>
        <mxCell id="oDbv9hanwlCo9opKcelk-57" value="" style="endArrow=classic;html=1;exitX=0.5;exitY=1;exitDx=0;exitDy=0;" parent="oDbv9hanwlCo9opKcelk-53" source="oDbv9hanwlCo9opKcelk-52" target="oDbv9hanwlCo9opKcelk-55" edge="1">
          <mxGeometry width="50" height="50" relative="1" as="geometry">
            <mxPoint x="390" y="220" as="sourcePoint" />
            <mxPoint x="440" y="170" as="targetPoint" />
          </mxGeometry>
        </mxCell>
        <mxCell id="oDbv9hanwlCo9opKcelk-59" value="" style="endArrow=classic;html=1;exitX=0.5;exitY=1;exitDx=0;exitDy=0;entryX=0.5;entryY=0;entryDx=0;entryDy=0;" parent="oDbv9hanwlCo9opKcelk-53" source="oDbv9hanwlCo9opKcelk-55" target="oDbv9hanwlCo9opKcelk-56" edge="1">
          <mxGeometry width="50" height="50" relative="1" as="geometry">
            <mxPoint x="189.99999999999977" y="139.99999999999977" as="sourcePoint" />
            <mxPoint x="189.99999999999977" y="209.99999999999977" as="targetPoint" />
          </mxGeometry>
        </mxCell>
        <mxCell id="vlUFlFi9cCU6zVkQco6e-9" value="N" style="edgeLabel;html=1;align=center;verticalAlign=middle;resizable=0;points=[];" parent="oDbv9hanwlCo9opKcelk-59" vertex="1" connectable="0">
          <mxGeometry x="-0.4961" relative="1" as="geometry">
            <mxPoint as="offset" />
          </mxGeometry>
        </mxCell>
        <mxCell id="oDbv9hanwlCo9opKcelk-66" value="教师" style="shape=umlActor;verticalLabelPosition=bottom;verticalAlign=top;html=1;outlineConnect=0;" parent="oDbv9hanwlCo9opKcelk-53" vertex="1">
          <mxGeometry x="350" y="70" width="30" height="60" as="geometry" />
        </mxCell>
        <mxCell id="oDbv9hanwlCo9opKcelk-67" value="相关部门负责人" style="shape=umlActor;verticalLabelPosition=bottom;verticalAlign=top;html=1;outlineConnect=0;" parent="oDbv9hanwlCo9opKcelk-53" vertex="1">
          <mxGeometry x="350" y="200" width="30" height="60" as="geometry" />
        </mxCell>
        <mxCell id="vlUFlFi9cCU6zVkQco6e-3" value="后勤人员" style="shape=umlActor;verticalLabelPosition=bottom;verticalAlign=top;html=1;outlineConnect=0;" parent="oDbv9hanwlCo9opKcelk-53" vertex="1">
          <mxGeometry x="350" y="340" width="30" height="60" as="geometry" />
        </mxCell>
        <mxCell id="vlUFlFi9cCU6zVkQco6e-7" value="" style="endArrow=classic;html=1;exitX=0;exitY=0.5;exitDx=0;exitDy=0;" parent="oDbv9hanwlCo9opKcelk-53" source="oDbv9hanwlCo9opKcelk-55" target="oDbv9hanwlCo9opKcelk-52" edge="1">
          <mxGeometry width="50" height="50" relative="1" as="geometry">
            <mxPoint x="120" y="239.99999999999977" as="sourcePoint" />
            <mxPoint x="100" y="99.99999999999977" as="targetPoint" />
            <Array as="points">
              <mxPoint x="70" y="240" />
              <mxPoint x="70" y="100" />
            </Array>
          </mxGeometry>
        </mxCell>
        <mxCell id="vlUFlFi9cCU6zVkQco6e-8" value="N" style="edgeLabel;html=1;align=center;verticalAlign=middle;resizable=0;points=[];" parent="vlUFlFi9cCU6zVkQco6e-7" vertex="1" connectable="0">
          <mxGeometry x="0.3439" y="-2" relative="1" as="geometry">
            <mxPoint as="offset" />
          </mxGeometry>
        </mxCell>
        <mxCell id="oDbv9hanwlCo9opKcelk-60" value="采购" style="swimlane;" parent="oDbv9hanwlCo9opKcelk-1" vertex="1">
          <mxGeometry x="720" y="1150" width="420" height="470" as="geometry">
            <mxRectangle x="650" y="650" width="60" height="23" as="alternateBounds" />
          </mxGeometry>
        </mxCell>
        <mxCell id="oDbv9hanwlCo9opKcelk-61" value="采购申请" style="rounded=0;whiteSpace=wrap;html=1;" parent="oDbv9hanwlCo9opKcelk-60" vertex="1">
          <mxGeometry x="100" y="70" width="120" height="60" as="geometry" />
        </mxCell>
        <mxCell id="oDbv9hanwlCo9opKcelk-62" value="审核" style="rhombus;whiteSpace=wrap;html=1;" parent="oDbv9hanwlCo9opKcelk-60" vertex="1">
          <mxGeometry x="120" y="200" width="80" height="80" as="geometry" />
        </mxCell>
        <mxCell id="oDbv9hanwlCo9opKcelk-63" value="申请成功" style="rounded=0;whiteSpace=wrap;html=1;" parent="oDbv9hanwlCo9opKcelk-60" vertex="1">
          <mxGeometry x="100" y="340" width="120" height="60" as="geometry" />
        </mxCell>
        <mxCell id="oDbv9hanwlCo9opKcelk-64" value="" style="endArrow=classic;html=1;exitX=0.5;exitY=1;exitDx=0;exitDy=0;" parent="oDbv9hanwlCo9opKcelk-60" source="oDbv9hanwlCo9opKcelk-61" target="oDbv9hanwlCo9opKcelk-62" edge="1">
          <mxGeometry width="50" height="50" relative="1" as="geometry">
            <mxPoint x="370" y="220" as="sourcePoint" />
            <mxPoint x="420" y="170" as="targetPoint" />
          </mxGeometry>
        </mxCell>
        <mxCell id="oDbv9hanwlCo9opKcelk-65" value="" style="endArrow=classic;html=1;exitX=0.5;exitY=1;exitDx=0;exitDy=0;entryX=0.5;entryY=0;entryDx=0;entryDy=0;" parent="oDbv9hanwlCo9opKcelk-60" source="oDbv9hanwlCo9opKcelk-62" target="oDbv9hanwlCo9opKcelk-63" edge="1">
          <mxGeometry width="50" height="50" relative="1" as="geometry">
            <mxPoint x="169.99999999999977" y="139.99999999999977" as="sourcePoint" />
            <mxPoint x="169.99999999999977" y="209.99999999999977" as="targetPoint" />
          </mxGeometry>
        </mxCell>
        <mxCell id="vlUFlFi9cCU6zVkQco6e-12" value="Y" style="edgeLabel;html=1;align=center;verticalAlign=middle;resizable=0;points=[];" parent="oDbv9hanwlCo9opKcelk-65" vertex="1" connectable="0">
          <mxGeometry x="-0.4961" y="-3" relative="1" as="geometry">
            <mxPoint as="offset" />
          </mxGeometry>
        </mxCell>
        <mxCell id="oDbv9hanwlCo9opKcelk-68" value="后勤人员" style="shape=umlActor;verticalLabelPosition=bottom;verticalAlign=top;html=1;outlineConnect=0;" parent="oDbv9hanwlCo9opKcelk-60" vertex="1">
          <mxGeometry x="300" y="70" width="30" height="60" as="geometry" />
        </mxCell>
        <mxCell id="oDbv9hanwlCo9opKcelk-69" value="相关领导" style="shape=umlActor;verticalLabelPosition=bottom;verticalAlign=top;html=1;outlineConnect=0;" parent="oDbv9hanwlCo9opKcelk-60" vertex="1">
          <mxGeometry x="300" y="200" width="30" height="60" as="geometry" />
        </mxCell>
        <mxCell id="vlUFlFi9cCU6zVkQco6e-10" value="" style="endArrow=classic;html=1;" parent="oDbv9hanwlCo9opKcelk-60" source="oDbv9hanwlCo9opKcelk-62" target="oDbv9hanwlCo9opKcelk-61" edge="1">
          <mxGeometry width="50" height="50" relative="1" as="geometry">
            <mxPoint x="129.99999999999977" y="239.99999999999977" as="sourcePoint" />
            <mxPoint x="160" y="100" as="targetPoint" />
            <Array as="points">
              <mxPoint x="60" y="240" />
              <mxPoint x="60" y="100" />
            </Array>
          </mxGeometry>
        </mxCell>
        <mxCell id="vlUFlFi9cCU6zVkQco6e-11" value="N" style="edgeLabel;html=1;align=center;verticalAlign=middle;resizable=0;points=[];" parent="vlUFlFi9cCU6zVkQco6e-10" vertex="1" connectable="0">
          <mxGeometry x="0.3439" y="-2" relative="1" as="geometry">
            <mxPoint as="offset" />
          </mxGeometry>
        </mxCell>
        <mxCell id="vlUFlFi9cCU6zVkQco6e-13" value="后勤人员" style="shape=umlActor;verticalLabelPosition=bottom;verticalAlign=top;html=1;outlineConnect=0;" parent="oDbv9hanwlCo9opKcelk-60" vertex="1">
          <mxGeometry x="300" y="340" width="30" height="60" as="geometry" />
        </mxCell>
        <mxCell id="oDbv9hanwlCo9opKcelk-70" value="报修" style="swimlane;" parent="oDbv9hanwlCo9opKcelk-1" vertex="1">
          <mxGeometry x="1160" y="1150" width="590" height="1260" as="geometry">
            <mxRectangle x="650" y="650" width="60" height="23" as="alternateBounds" />
          </mxGeometry>
        </mxCell>
        <mxCell id="oDbv9hanwlCo9opKcelk-71" value="报修申请" style="rounded=0;whiteSpace=wrap;html=1;" parent="oDbv9hanwlCo9opKcelk-70" vertex="1">
          <mxGeometry x="80" y="70" width="120" height="60" as="geometry" />
        </mxCell>
        <mxCell id="oDbv9hanwlCo9opKcelk-72" value="审核" style="rhombus;whiteSpace=wrap;html=1;" parent="oDbv9hanwlCo9opKcelk-70" vertex="1">
          <mxGeometry x="100" y="200" width="80" height="80" as="geometry" />
        </mxCell>
        <mxCell id="oDbv9hanwlCo9opKcelk-73" value="维修填写" style="rounded=0;whiteSpace=wrap;html=1;" parent="oDbv9hanwlCo9opKcelk-70" vertex="1">
          <mxGeometry x="80" y="350" width="120" height="60" as="geometry" />
        </mxCell>
        <mxCell id="oDbv9hanwlCo9opKcelk-74" value="" style="endArrow=classic;html=1;exitX=0.5;exitY=1;exitDx=0;exitDy=0;" parent="oDbv9hanwlCo9opKcelk-70" source="oDbv9hanwlCo9opKcelk-71" target="oDbv9hanwlCo9opKcelk-72" edge="1">
          <mxGeometry width="50" height="50" relative="1" as="geometry">
            <mxPoint x="350" y="220" as="sourcePoint" />
            <mxPoint x="400" y="170" as="targetPoint" />
          </mxGeometry>
        </mxCell>
        <mxCell id="oDbv9hanwlCo9opKcelk-75" value="" style="endArrow=classic;html=1;exitX=0.5;exitY=1;exitDx=0;exitDy=0;entryX=0.5;entryY=0;entryDx=0;entryDy=0;" parent="oDbv9hanwlCo9opKcelk-70" source="oDbv9hanwlCo9opKcelk-72" target="oDbv9hanwlCo9opKcelk-73" edge="1">
          <mxGeometry width="50" height="50" relative="1" as="geometry">
            <mxPoint x="149.99999999999977" y="139.99999999999977" as="sourcePoint" />
            <mxPoint x="149.99999999999977" y="209.99999999999977" as="targetPoint" />
          </mxGeometry>
        </mxCell>
        <mxCell id="vlUFlFi9cCU6zVkQco6e-0" value="Y" style="edgeLabel;html=1;align=center;verticalAlign=middle;resizable=0;points=[];" parent="oDbv9hanwlCo9opKcelk-75" vertex="1" connectable="0">
          <mxGeometry x="-0.4176" y="-2" relative="1" as="geometry">
            <mxPoint as="offset" />
          </mxGeometry>
        </mxCell>
        <mxCell id="oDbv9hanwlCo9opKcelk-76" value="教师" style="shape=umlActor;verticalLabelPosition=bottom;verticalAlign=top;html=1;outlineConnect=0;" parent="oDbv9hanwlCo9opKcelk-70" vertex="1">
          <mxGeometry x="280" y="70" width="30" height="60" as="geometry" />
        </mxCell>
        <mxCell id="oDbv9hanwlCo9opKcelk-77" value="后勤管理员" style="shape=umlActor;verticalLabelPosition=bottom;verticalAlign=top;html=1;outlineConnect=0;" parent="oDbv9hanwlCo9opKcelk-70" vertex="1">
          <mxGeometry x="280" y="200" width="30" height="60" as="geometry" />
        </mxCell>
        <mxCell id="vlUFlFi9cCU6zVkQco6e-1" value="" style="endArrow=classic;html=1;exitX=0;exitY=0.5;exitDx=0;exitDy=0;entryX=0;entryY=0.5;entryDx=0;entryDy=0;" parent="oDbv9hanwlCo9opKcelk-70" source="oDbv9hanwlCo9opKcelk-72" target="oDbv9hanwlCo9opKcelk-71" edge="1">
          <mxGeometry width="50" height="50" relative="1" as="geometry">
            <mxPoint x="-30" y="260" as="sourcePoint" />
            <mxPoint x="20" y="210" as="targetPoint" />
            <Array as="points">
              <mxPoint x="50" y="240" />
              <mxPoint x="50" y="100" />
            </Array>
          </mxGeometry>
        </mxCell>
        <mxCell id="vlUFlFi9cCU6zVkQco6e-4" value="N" style="edgeLabel;html=1;align=center;verticalAlign=middle;resizable=0;points=[];" parent="vlUFlFi9cCU6zVkQco6e-1" vertex="1" connectable="0">
          <mxGeometry x="0.3439" y="-2" relative="1" as="geometry">
            <mxPoint as="offset" />
          </mxGeometry>
        </mxCell>
        <mxCell id="vlUFlFi9cCU6zVkQco6e-2" value="维修人员" style="shape=umlActor;verticalLabelPosition=bottom;verticalAlign=top;html=1;outlineConnect=0;" parent="oDbv9hanwlCo9opKcelk-70" vertex="1">
          <mxGeometry x="280" y="340" width="30" height="60" as="geometry" />
        </mxCell>
        <mxCell id="vlUFlFi9cCU6zVkQco6e-14" value="是否要经费" style="rhombus;whiteSpace=wrap;html=1;" parent="oDbv9hanwlCo9opKcelk-70" vertex="1">
          <mxGeometry x="100" y="480" width="80" height="80" as="geometry" />
        </mxCell>
        <mxCell id="vlUFlFi9cCU6zVkQco6e-17" value="" style="endArrow=classic;html=1;" parent="oDbv9hanwlCo9opKcelk-70" source="oDbv9hanwlCo9opKcelk-73" target="vlUFlFi9cCU6zVkQco6e-14" edge="1">
          <mxGeometry width="50" height="50" relative="1" as="geometry">
            <mxPoint x="139.99999999999955" y="419.9999999999998" as="sourcePoint" />
            <mxPoint x="140" y="530" as="targetPoint" />
          </mxGeometry>
        </mxCell>
        <mxCell id="vlUFlFi9cCU6zVkQco6e-18" value="申请经费" style="rounded=0;whiteSpace=wrap;html=1;" parent="oDbv9hanwlCo9opKcelk-70" vertex="1">
          <mxGeometry x="80" y="620" width="120" height="60" as="geometry" />
        </mxCell>
        <mxCell id="vlUFlFi9cCU6zVkQco6e-19" value="" style="endArrow=classic;html=1;" parent="oDbv9hanwlCo9opKcelk-70" source="vlUFlFi9cCU6zVkQco6e-14" target="vlUFlFi9cCU6zVkQco6e-18" edge="1">
          <mxGeometry width="50" height="50" relative="1" as="geometry">
            <mxPoint x="139.99999999999955" y="550" as="sourcePoint" />
            <mxPoint x="139.99999999999955" y="620" as="targetPoint" />
          </mxGeometry>
        </mxCell>
        <mxCell id="vlUFlFi9cCU6zVkQco6e-20" value="Y" style="edgeLabel;html=1;align=center;verticalAlign=middle;resizable=0;points=[];" parent="vlUFlFi9cCU6zVkQco6e-19" vertex="1" connectable="0">
          <mxGeometry x="-0.5353" y="3" relative="1" as="geometry">
            <mxPoint as="offset" />
          </mxGeometry>
        </mxCell>
        <mxCell id="vlUFlFi9cCU6zVkQco6e-27" value="审核" style="rhombus;whiteSpace=wrap;html=1;" parent="oDbv9hanwlCo9opKcelk-70" vertex="1">
          <mxGeometry x="100" y="740" width="80" height="80" as="geometry" />
        </mxCell>
        <mxCell id="vlUFlFi9cCU6zVkQco6e-28" value="维修人员" style="shape=umlActor;verticalLabelPosition=bottom;verticalAlign=top;html=1;outlineConnect=0;" parent="oDbv9hanwlCo9opKcelk-70" vertex="1">
          <mxGeometry x="280" y="610" width="30" height="60" as="geometry" />
        </mxCell>
        <mxCell id="vlUFlFi9cCU6zVkQco6e-29" value="相关领导" style="shape=umlActor;verticalLabelPosition=bottom;verticalAlign=top;html=1;outlineConnect=0;" parent="oDbv9hanwlCo9opKcelk-70" vertex="1">
          <mxGeometry x="280" y="740" width="30" height="60" as="geometry" />
        </mxCell>
        <mxCell id="vlUFlFi9cCU6zVkQco6e-30" value="" style="endArrow=classic;html=1;" parent="oDbv9hanwlCo9opKcelk-70" source="vlUFlFi9cCU6zVkQco6e-18" target="vlUFlFi9cCU6zVkQco6e-27" edge="1">
          <mxGeometry width="50" height="50" relative="1" as="geometry">
            <mxPoint x="149.99999999999955" y="420" as="sourcePoint" />
            <mxPoint x="149.99999999999955" y="490" as="targetPoint" />
          </mxGeometry>
        </mxCell>
        <mxCell id="vlUFlFi9cCU6zVkQco6e-31" value="申请经费成功反馈" style="rounded=0;whiteSpace=wrap;html=1;" parent="oDbv9hanwlCo9opKcelk-70" vertex="1">
          <mxGeometry x="80" y="880" width="120" height="60" as="geometry" />
        </mxCell>
        <mxCell id="vlUFlFi9cCU6zVkQco6e-32" value="维修人员" style="shape=umlActor;verticalLabelPosition=bottom;verticalAlign=top;html=1;outlineConnect=0;" parent="oDbv9hanwlCo9opKcelk-70" vertex="1">
          <mxGeometry x="280" y="880" width="30" height="60" as="geometry" />
        </mxCell>
        <mxCell id="vlUFlFi9cCU6zVkQco6e-33" value="" style="endArrow=classic;html=1;" parent="oDbv9hanwlCo9opKcelk-70" source="vlUFlFi9cCU6zVkQco6e-27" target="vlUFlFi9cCU6zVkQco6e-31" edge="1">
          <mxGeometry width="50" height="50" relative="1" as="geometry">
            <mxPoint x="149.99999999999955" y="570" as="sourcePoint" />
            <mxPoint x="149.99999999999955" y="630" as="targetPoint" />
          </mxGeometry>
        </mxCell>
        <mxCell id="vlUFlFi9cCU6zVkQco6e-34" value="Y" style="edgeLabel;html=1;align=center;verticalAlign=middle;resizable=0;points=[];" parent="vlUFlFi9cCU6zVkQco6e-33" vertex="1" connectable="0">
          <mxGeometry x="-0.5353" y="3" relative="1" as="geometry">
            <mxPoint as="offset" />
          </mxGeometry>
        </mxCell>
        <mxCell id="vlUFlFi9cCU6zVkQco6e-35" value="结束" style="rounded=1;whiteSpace=wrap;html=1;" parent="oDbv9hanwlCo9opKcelk-70" vertex="1">
          <mxGeometry x="80" y="1044" width="120" height="60" as="geometry" />
        </mxCell>
        <mxCell id="vlUFlFi9cCU6zVkQco6e-25" value="" style="endArrow=classic;html=1;entryX=0;entryY=0.5;entryDx=0;entryDy=0;" parent="oDbv9hanwlCo9opKcelk-70" source="vlUFlFi9cCU6zVkQco6e-14" target="vlUFlFi9cCU6zVkQco6e-35" edge="1">
          <mxGeometry width="50" height="50" relative="1" as="geometry">
            <mxPoint x="85" y="518.9999999999998" as="sourcePoint" />
            <mxPoint x="110" y="1090" as="targetPoint" />
            <Array as="points">
              <mxPoint x="35" y="519" />
              <mxPoint x="35" y="1074" />
            </Array>
          </mxGeometry>
        </mxCell>
        <mxCell id="vlUFlFi9cCU6zVkQco6e-26" value="N" style="edgeLabel;html=1;align=center;verticalAlign=middle;resizable=0;points=[];" parent="vlUFlFi9cCU6zVkQco6e-25" vertex="1" connectable="0">
          <mxGeometry x="0.3439" y="-2" relative="1" as="geometry">
            <mxPoint as="offset" />
          </mxGeometry>
        </mxCell>
        <mxCell id="vlUFlFi9cCU6zVkQco6e-36" value="" style="endArrow=classic;html=1;entryX=0.5;entryY=0;entryDx=0;entryDy=0;" parent="oDbv9hanwlCo9opKcelk-70" source="vlUFlFi9cCU6zVkQco6e-31" target="vlUFlFi9cCU6zVkQco6e-35" edge="1">
          <mxGeometry width="50" height="50" relative="1" as="geometry">
            <mxPoint x="149.99999999999955" y="690" as="sourcePoint" />
            <mxPoint x="149.99999999999955" y="750" as="targetPoint" />
          </mxGeometry>
        </mxCell>
        <mxCell id="vlUFlFi9cCU6zVkQco6e-41" value="" style="endArrow=classic;html=1;" parent="oDbv9hanwlCo9opKcelk-70" source="vlUFlFi9cCU6zVkQco6e-27" target="vlUFlFi9cCU6zVkQco6e-18" edge="1">
          <mxGeometry width="50" height="50" relative="1" as="geometry">
            <mxPoint x="111" y="779.9999999999998" as="sourcePoint" />
            <mxPoint x="91" y="639.9999999999998" as="targetPoint" />
            <Array as="points">
              <mxPoint x="61" y="780" />
              <mxPoint x="61" y="650" />
            </Array>
          </mxGeometry>
        </mxCell>
        <mxCell id="vlUFlFi9cCU6zVkQco6e-42" value="N" style="edgeLabel;html=1;align=center;verticalAlign=middle;resizable=0;points=[];" parent="vlUFlFi9cCU6zVkQco6e-41" vertex="1" connectable="0">
          <mxGeometry x="0.3439" y="-2" relative="1" as="geometry">
            <mxPoint as="offset" />
          </mxGeometry>
        </mxCell>
        <mxCell id="vlUFlFi9cCU6zVkQco6e-56" value="维修责任人" style="shape=umlActor;verticalLabelPosition=bottom;verticalAlign=top;html=1;outlineConnect=0;" parent="oDbv9hanwlCo9opKcelk-70" vertex="1">
          <mxGeometry x="370" y="340" width="30" height="60" as="geometry" />
        </mxCell>
        <mxCell id="D95FVgxs19TmoeW3dnm6-6" value="" style="endArrow=classic;html=1;exitX=0.5;exitY=0.5;exitDx=0;exitDy=0;exitPerimeter=0;" edge="1" parent="oDbv9hanwlCo9opKcelk-1" source="oDbv9hanwlCo9opKcelk-3" target="oDbv9hanwlCo9opKcelk-7">
          <mxGeometry width="50" height="50" relative="1" as="geometry">
            <mxPoint x="1415" y="330" as="sourcePoint" />
            <mxPoint x="1100" y="160" as="targetPoint" />
          </mxGeometry>
        </mxCell>
        <mxCell id="D95FVgxs19TmoeW3dnm6-7" value="盘查" style="edgeLabel;html=1;align=center;verticalAlign=middle;resizable=0;points=[];" vertex="1" connectable="0" parent="D95FVgxs19TmoeW3dnm6-6">
          <mxGeometry x="-0.2" y="-1" relative="1" as="geometry">
            <mxPoint as="offset" />
          </mxGeometry>
        </mxCell>
        <mxCell id="D95FVgxs19TmoeW3dnm6-8" value="资产清单" style="ellipse;whiteSpace=wrap;html=1;" vertex="1" parent="oDbv9hanwlCo9opKcelk-1">
          <mxGeometry x="454" y="470" width="120" height="80" as="geometry" />
        </mxCell>
        <mxCell id="D95FVgxs19TmoeW3dnm6-9" value="" style="endArrow=classic;html=1;exitX=0;exitY=0.5;exitDx=0;exitDy=0;exitPerimeter=0;entryX=1;entryY=0.5;entryDx=0;entryDy=0;" edge="1" parent="oDbv9hanwlCo9opKcelk-1" source="oDbv9hanwlCo9opKcelk-2" target="D95FVgxs19TmoeW3dnm6-8">
          <mxGeometry width="50" height="50" relative="1" as="geometry">
            <mxPoint x="790" y="360" as="sourcePoint" />
            <mxPoint x="578.6880905488929" y="423.54517629502334" as="targetPoint" />
          </mxGeometry>
        </mxCell>
        <mxCell id="D95FVgxs19TmoeW3dnm6-12" value="" style="endArrow=classic;html=1;entryX=0.5;entryY=0;entryDx=0;entryDy=0;" edge="1" parent="oDbv9hanwlCo9opKcelk-1" source="D95FVgxs19TmoeW3dnm6-8" target="oDbv9hanwlCo9opKcelk-25">
          <mxGeometry width="50" height="50" relative="1" as="geometry">
            <mxPoint x="820" y="400" as="sourcePoint" />
            <mxPoint x="571.2443415800713" y="530.3425946335087" as="targetPoint" />
          </mxGeometry>
        </mxCell>
        <mxCell id="D95FVgxs19TmoeW3dnm6-13" value="" style="endArrow=none;html=1;exitX=0.5;exitY=0.5;exitDx=0;exitDy=0;exitPerimeter=0;entryX=0;entryY=0.5;entryDx=0;entryDy=0;" edge="1" parent="oDbv9hanwlCo9opKcelk-1" source="oDbv9hanwlCo9opKcelk-3" target="D95FVgxs19TmoeW3dnm6-8">
          <mxGeometry width="50" height="50" relative="1" as="geometry">
            <mxPoint x="155" y="360" as="sourcePoint" />
            <mxPoint x="424" y="205" as="targetPoint" />
          </mxGeometry>
        </mxCell>
        <mxCell id="D95FVgxs19TmoeW3dnm6-14" value="" style="endArrow=classic;html=1;exitX=1;exitY=0;exitDx=0;exitDy=0;entryX=0.145;entryY=1;entryDx=0;entryDy=-4.35;entryPerimeter=0;" edge="1" parent="oDbv9hanwlCo9opKcelk-1" source="oDbv9hanwlCo9opKcelk-25" target="oDbv9hanwlCo9opKcelk-2">
          <mxGeometry width="50" height="50" relative="1" as="geometry">
            <mxPoint x="700" y="630" as="sourcePoint" />
            <mxPoint x="866" y="761.2755102040819" as="targetPoint" />
          </mxGeometry>
        </mxCell>
      </root>
    </mxGraphModel>
  </diagram>
</mxfile>
